<svg width="135" height="98" viewBox="0 0 135 98" fill="none" xmlns="http://www.w3.org/2000/svg">
<g filter="url(#filter0_d_0_1)">
<mask id="path-1-outside-1_0_1" maskUnits="userSpaceOnUse" x="3" y="-1" width="59" height="92" fill="black">
<rect fill="white" x="3" y="-1" width="59" height="92"/>
<path d="M60.768 90V0.399994H4.064V11.152H49.248V43.92H15.712V46.48H49.248V90H60.768Z"/>
</mask>
<path d="M60.768 90V0.399994H4.064V11.152H49.248V43.92H15.712V46.48H49.248V90H60.768Z" fill="black"/>
<path d="M60.768 90H61.768V91H60.768V90ZM60.768 0.399994V-0.600006H61.768V0.399994H60.768ZM4.064 0.399994H3.064V-0.600006H4.064V0.399994ZM4.064 11.152V12.152H3.064V11.152H4.064ZM49.248 11.152V10.152H50.248V11.152H49.248ZM49.248 43.92H50.248V44.92H49.248V43.92ZM15.712 43.92H14.712V42.92H15.712V43.92ZM15.712 46.48V47.48H14.712V46.48H15.712ZM49.248 46.48V45.48H50.248V46.48H49.248ZM49.248 90V91H48.248V90H49.248ZM59.768 90V0.399994H61.768V90H59.768ZM60.768 1.39999H4.064V-0.600006H60.768V1.39999ZM5.064 0.399994V11.152H3.064V0.399994H5.064ZM4.064 10.152H49.248V12.152H4.064V10.152ZM50.248 11.152V43.92H48.248V11.152H50.248ZM49.248 44.92H15.712V42.92H49.248V44.92ZM16.712 43.92V46.48H14.712V43.92H16.712ZM15.712 45.48H49.248V47.48H15.712V45.48ZM50.248 46.48V90H48.248V46.48H50.248ZM49.248 89H60.768V91H49.248V89Z" fill="black" mask="url(#path-1-outside-1_0_1)"/>
</g>
<g filter="url(#filter1_d_0_1)">
<mask id="path-3-outside-2_0_1" maskUnits="userSpaceOnUse" x="57" y="-1" width="76" height="92" fill="black">
<rect fill="white" x="57" y="-1" width="76" height="92"/>
<path d="M58.232 90V0.399994H69.624V43.92H82.68L116.472 0.399994H129.272L94.968 44.432L130.296 90H116.344L82.552 46.48H69.624V90H58.232Z"/>
</mask>
<path d="M58.232 90V0.399994H69.624V43.92H82.68L116.472 0.399994H129.272L94.968 44.432L130.296 90H116.344L82.552 46.48H69.624V90H58.232Z" fill="black"/>
<path d="M58.232 90H57.232V91H58.232V90ZM58.232 0.399994V-0.600006H57.232V0.399994H58.232ZM69.624 0.399994H70.624V-0.600006H69.624V0.399994ZM69.624 43.92H68.624V44.92H69.624V43.92ZM82.68 43.92V44.92H83.1696L83.4699 44.5333L82.68 43.92ZM116.472 0.399994V-0.600006H115.982L115.682 -0.213303L116.472 0.399994ZM129.272 0.399994L130.061 1.01457L131.319 -0.600006H129.272V0.399994ZM94.968 44.432L94.1791 43.8174L93.7015 44.4305L94.1777 45.0447L94.968 44.432ZM130.296 90V91H132.337L131.086 89.3873L130.296 90ZM116.344 90L115.554 90.6133L115.854 91H116.344V90ZM82.552 46.48L83.3419 45.8667L83.0416 45.48H82.552V46.48ZM69.624 46.48V45.48H68.624V46.48H69.624ZM69.624 90V91H70.624V90H69.624ZM59.232 90V0.399994H57.232V90H59.232ZM58.232 1.39999H69.624V-0.600006H58.232V1.39999ZM68.624 0.399994V43.92H70.624V0.399994H68.624ZM69.624 44.92H82.68V42.92H69.624V44.92ZM83.4699 44.5333L117.262 1.01329L115.682 -0.213303L81.8901 43.3067L83.4699 44.5333ZM116.472 1.39999H129.272V-0.600006H116.472V1.39999ZM128.483 -0.214582L94.1791 43.8174L95.7569 45.0466L130.061 1.01457L128.483 -0.214582ZM94.1777 45.0447L129.506 90.6127L131.086 89.3873L95.7583 43.8193L94.1777 45.0447ZM130.296 89H116.344V91H130.296V89ZM117.134 89.3867L83.3419 45.8667L81.7621 47.0933L115.554 90.6133L117.134 89.3867ZM82.552 45.48H69.624V47.48H82.552V45.48ZM68.624 46.48V90H70.624V46.48H68.624ZM69.624 89H58.232V91H69.624V89Z" fill="black" mask="url(#path-3-outside-2_0_1)"/>
</g>
<defs>
<filter id="filter0_d_0_1" x="0.0639954" y="0.399994" width="64.704" height="97.6" filterUnits="userSpaceOnUse" color-interpolation-filters="sRGB">
<feFlood flood-opacity="0" result="BackgroundImageFix"/>
<feColorMatrix in="SourceAlpha" type="matrix" values="0 0 0 0 0 0 0 0 0 0 0 0 0 0 0 0 0 0 127 0" result="hardAlpha"/>
<feOffset dy="4"/>
<feGaussianBlur stdDeviation="2"/>
<feComposite in2="hardAlpha" operator="out"/>
<feColorMatrix type="matrix" values="0 0 0 0 0 0 0 0 0 0 0 0 0 0 0 0 0 0 0.25 0"/>
<feBlend mode="normal" in2="BackgroundImageFix" result="effect1_dropShadow_0_1"/>
<feBlend mode="normal" in="SourceGraphic" in2="effect1_dropShadow_0_1" result="shape"/>
</filter>
<filter id="filter1_d_0_1" x="54.232" y="0.399994" width="80.064" height="97.6" filterUnits="userSpaceOnUse" color-interpolation-filters="sRGB">
<feFlood flood-opacity="0" result="BackgroundImageFix"/>
<feColorMatrix in="SourceAlpha" type="matrix" values="0 0 0 0 0 0 0 0 0 0 0 0 0 0 0 0 0 0 127 0" result="hardAlpha"/>
<feOffset dy="4"/>
<feGaussianBlur stdDeviation="2"/>
<feComposite in2="hardAlpha" operator="out"/>
<feColorMatrix type="matrix" values="0 0 0 0 0 0 0 0 0 0 0 0 0 0 0 0 0 0 0.25 0"/>
<feBlend mode="normal" in2="BackgroundImageFix" result="effect1_dropShadow_0_1"/>
<feBlend mode="normal" in="SourceGraphic" in2="effect1_dropShadow_0_1" result="shape"/>
</filter>
</defs>
</svg>
